<svg xmlns="http://www.w3.org/2000/svg" width="73" height="73"><path fill="#cb2630" d="M20.325 31.795V58.6a2.842 2.842 0 01-2.832 2.851H11.83C5.583 61.451.502 56.334.502 50.045V40.35c0-4.215 2.283-7.9 5.667-9.874.082-8.106 3.253-15.715 8.955-21.456C20.9 3.203 28.58 0 36.75 0a30.245 30.245 0 0117.667 5.654 30.695 30.695 0 0111.026 14.458 2.857 2.857 0 01-1.673 3.664 2.827 2.827 0 01-3.639-1.685c-3.6-9.802-12.996-16.388-23.38-16.388-13.123 0-23.908 10.266-24.853 23.24h5.595a2.842 2.842 0 012.832 2.852zm-5.664 2.851H11.83c-3.124 0-5.665 2.559-5.665 5.704v9.695c0 3.145 2.541 5.703 5.665 5.703h2.831zM73 40.35v9.695c0 6.29-5.082 11.406-11.328 11.406H58.84v.143c0 4.717-3.811 8.554-8.496 8.554h-8.637v-.09A5.656 5.656 0 0136.75 73c-3.128 0-5.664-2.553-5.664-5.703 0-3.15 2.536-5.703 5.664-5.703a5.656 5.656 0 014.956 2.942v-.09h8.637c1.562 0 2.832-1.28 2.832-2.852v-29.8a2.842 2.842 0 012.832-2.85h5.664C67.918 28.943 73 34.06 73 40.35zm-5.664 0c0-3.145-2.54-5.704-5.664-5.704H58.84v21.102h2.832c3.123 0 5.664-2.558 5.664-5.703z"/></svg>