<svg xmlns="http://www.w3.org/2000/svg" width="68" height="57"><path fill="#cb2630" d="M67.718 3.632V54.17a2.816 2.816 0 01-2.821 2.808H19.75a2.816 2.816 0 01-2.822-2.808 2.816 2.816 0 012.822-2.807h42.324V40.132H47.967c-6.223 0-11.286-5.038-11.286-11.23 0-6.194 5.063-11.232 11.286-11.232h14.108V6.44H5.643v44.923h2.822a2.816 2.816 0 012.821 2.807 2.816 2.816 0 01-2.821 2.808H2.822A2.816 2.816 0 010 54.17V3.632A2.816 2.816 0 012.822.824h62.075a2.816 2.816 0 012.821 2.808zm-5.643 30.884v-11.23H47.967c-3.112 0-5.643 2.518-5.643 5.615 0 3.097 2.53 5.615 5.643 5.615zm-5.643-5.615a2.816 2.816 0 01-2.822 2.808h-2.82a2.816 2.816 0 01-2.822-2.808 2.816 2.816 0 012.822-2.808h2.821a2.816 2.816 0 012.822 2.808z"/></svg>