<svg xmlns="http://www.w3.org/2000/svg" width="85" height="60" viewBox="0 0 85 60"><g><g><path fill="#cb2630" d="M63.84 59.582c-4.92 0-9.07-3.4-10.285-8.005h-15.8c-1.216 4.605-5.366 8.005-10.285 8.005-4.92 0-9.07-3.4-10.285-8.005h-6.924c-1.47 0-2.661-1.207-2.661-2.698 0-1.49 1.191-2.698 2.661-2.698h6.878c1.154-4.696 5.348-8.185 10.331-8.185s9.177 3.49 10.33 8.185h15.71c1.152-4.696 5.347-8.185 10.33-8.185 4.982 0 9.177 3.49 10.33 8.185h5.016V32.264l-3.876-5.061H54.614c-1.47 0-2.661-1.208-2.661-2.699V5.616H10.26c-1.47 0-2.661-1.208-2.661-2.698S8.79.22 10.26.22h44.353c1.47 0 2.661 1.208 2.661 2.698v2.698H68.63c1.006 0 1.926.575 2.378 1.486l7.984 16.1-.005.002 4.962 6.481c.362.473.56 1.056.56 1.655V48.88c0 1.49-1.192 2.698-2.662 2.698h-7.722c-1.215 4.605-5.365 8.005-10.285 8.005zm5.322-10.793c0-2.976-2.387-5.396-5.322-5.396-2.936 0-5.323 2.42-5.323 5.396s2.387 5.397 5.323 5.397c2.935 0 5.322-2.42 5.322-5.397zm-36.37 0c0-2.976-2.388-5.396-5.322-5.396-2.935 0-5.322 2.42-5.322 5.396s2.387 5.397 5.322 5.397 5.322-2.42 5.322-5.397zM66.99 11.013h-9.714v10.793H72.34zm-45.02 24.195c0 1.49-1.19 2.698-2.66 2.698H7.067c-1.47 0-2.66-1.208-2.66-2.698s1.19-2.698 2.66-2.698H19.31c1.47 0 2.661 1.207 2.66 2.698zm6.122-10.614c0 1.49-1.191 2.699-2.661 2.699H2.72c-1.469 0-2.66-1.208-2.66-2.699 0-1.49 1.191-2.698 2.66-2.698h22.71c1.47 0 2.66 1.208 2.66 2.698zm4.346-10.613c0 1.49-1.19 2.698-2.66 2.698H7.066c-1.47 0-2.66-1.208-2.66-2.698s1.19-2.698 2.66-2.698h22.71c1.47 0 2.66 1.208 2.66 2.698z"/></g></g></svg>