<svg xmlns="http://www.w3.org/2000/svg" width="70" height="61" viewBox="0 0 70 61"><g><g opacity=".5"><path fill="#a4a4a4" d="M68.26 60.555a1.79 1.79 0 1 1 .001-3.581 1.79 1.79 0 0 1-.001 3.58m-9.495 0a1.79 1.79 0 1 1-.001-3.58 1.79 1.79 0 0 1 .001 3.58m-9.496 0a1.79 1.79 0 1 1 .002-3.58 1.79 1.79 0 0 1-.002 3.58m-9.494 0a1.79 1.79 0 0 1 0-3.579c.989 0 1.788.801 1.788 1.792 0 .985-.8 1.788-1.788 1.788m-9.498 0a1.79 1.79 0 1 1 .001-3.581 1.79 1.79 0 0 1-.001 3.58m-9.496 0a1.79 1.79 0 1 1 .001-3.58 1.79 1.79 0 0 1-.001 3.58m-9.496 0c-.987 0-1.79-.802-1.79-1.787a1.791 1.791 0 1 1 3.582 0c0 .985-.802 1.788-1.792 1.788m-9.492 0A1.792 1.792 0 0 1 0 58.767a1.792 1.792 0 1 1 3.581 0 1.79 1.79 0 0 1-1.79 1.788M68.26 51.06a1.791 1.791 0 1 1 .002-3.583 1.791 1.791 0 0 1-.002 3.583m-9.495 0a1.792 1.792 0 1 1 0-3.584 1.792 1.792 0 0 1 0 3.584m-9.496 0a1.791 1.791 0 1 1 .003-3.583 1.791 1.791 0 0 1-.003 3.583m-9.494 0a1.791 1.791 0 0 1 0-3.582c.989 0 1.788.801 1.788 1.79a1.79 1.79 0 0 1-1.788 1.792m-9.498 0a1.791 1.791 0 0 1 0-3.582 1.791 1.791 0 0 1 0 3.582m-9.496 0a1.791 1.791 0 1 1 .003-3.583 1.791 1.791 0 0 1-.003 3.583m-9.496 0a1.79 1.79 0 1 1 1.792-1.792c0 .989-.802 1.792-1.792 1.792m-9.492 0a1.791 1.791 0 1 1 0 0m66.467-9.496a1.79 1.79 0 1 1 .002-3.582 1.79 1.79 0 0 1-.002 3.582m-9.495 0a1.791 1.791 0 1 1 0-3.583 1.791 1.791 0 0 1 0 3.583m-9.496 0a1.79 1.79 0 1 1 .002-3.582 1.79 1.79 0 0 1-.002 3.582m-9.494 0a1.79 1.79 0 0 1 0-3.582c.989 0 1.788.801 1.788 1.792 0 .986-.8 1.79-1.788 1.79m-9.498 0a1.79 1.79 0 1 1 .002-3.582 1.79 1.79 0 0 1-.002 3.582m-9.496 0a1.79 1.79 0 1 1 .002-3.582 1.79 1.79 0 0 1-.002 3.582m-9.496 0a1.791 1.791 0 1 1 1.792-1.79c0 .986-.802 1.79-1.792 1.79m-9.492 0a1.792 1.792 0 1 1 0 0m66.467-9.497a1.791 1.791 0 1 1 1.792-1.79 1.79 1.79 0 0 1-1.792 1.79m-9.495 0a1.79 1.79 0 1 1 0-3.581 1.79 1.79 0 0 1 0 3.582m-9.496 0a1.791 1.791 0 1 1 1.792-1.79c0 .988-.805 1.79-1.792 1.79m-9.494 0a1.791 1.791 0 0 1 0-3.582 1.79 1.79 0 0 1 1.788 1.791c0 .99-.8 1.79-1.788 1.79m-9.498 0a1.791 1.791 0 0 1 0-3.582 1.791 1.791 0 0 1 0 3.582m-9.496 0a1.791 1.791 0 1 1 1.792-1.79c0 .99-.803 1.79-1.792 1.79m-9.496 0a1.79 1.79 0 1 1 .001-3.581 1.79 1.79 0 0 1-.001 3.581m-9.492 0a1.791 1.791 0 1 1-.002-3.582 1.791 1.791 0 0 1 .002 3.582m66.467-9.496a1.79 1.79 0 1 1 .002-3.581 1.79 1.79 0 0 1-.002 3.581m-9.495 0c-.99 0-1.791-.802-1.791-1.791a1.791 1.791 0 1 1 1.791 1.791m-9.496 0a1.79 1.79 0 1 1 .002-3.581 1.79 1.79 0 0 1-.002 3.581m-9.494 0a1.79 1.79 0 0 1 0-3.58c.989 0 1.788.804 1.788 1.789 0 .989-.8 1.791-1.788 1.791m-9.498 0a1.79 1.79 0 0 1 0-3.58 1.79 1.79 0 0 1 0 3.58m-9.496 0a1.79 1.79 0 1 1 .002-3.581 1.79 1.79 0 0 1-.002 3.581m-9.496 0c-.987 0-1.79-.802-1.79-1.791a1.792 1.792 0 0 1 3.582 0c0 .989-.802 1.791-1.792 1.791m-9.492 0A1.793 1.793 0 0 1 0 20.781a1.79 1.79 0 1 1 1.792 1.791m66.467-9.494a1.79 1.79 0 1 1 .002-3.582 1.79 1.79 0 0 1-.002 3.582m-9.495 0a1.791 1.791 0 1 1 0-3.582 1.791 1.791 0 0 1 0 3.582m-9.496 0a1.79 1.79 0 1 1 .002-3.582 1.79 1.79 0 0 1-.002 3.582m-9.494 0a1.79 1.79 0 0 1 0-3.581c.989 0 1.788.8 1.788 1.79 0 .988-.8 1.791-1.788 1.791m-9.498 0a1.79 1.79 0 1 1 .002-3.582 1.79 1.79 0 0 1-.002 3.582m-9.496 0a1.79 1.79 0 1 1 .002-3.582 1.79 1.79 0 0 1-.002 3.582m-9.496 0a1.79 1.79 0 1 1 1.792-1.792c0 .99-.802 1.792-1.792 1.792m-9.492 0a1.791 1.791 0 1 1 0 0M68.26 3.582A1.79 1.79 0 1 1 68.262 0a1.79 1.79 0 0 1-.002 3.582m-9.495 0a1.791 1.791 0 1 1 0-3.583 1.791 1.791 0 0 1 0 3.583m-9.496 0A1.79 1.79 0 1 1 49.272 0a1.79 1.79 0 0 1-.003 3.582m-9.494 0a1.79 1.79 0 0 1 0-3.581c.989 0 1.788.8 1.788 1.79a1.79 1.79 0 0 1-1.788 1.791m-9.498 0A1.79 1.79 0 1 1 30.279 0a1.79 1.79 0 0 1-.002 3.582m-9.496 0A1.79 1.79 0 1 1 20.783 0a1.79 1.79 0 0 1-.002 3.582m-9.496 0a1.79 1.79 0 1 1 1.792-1.792c0 .99-.802 1.792-1.792 1.792m-9.492 0a1.791 1.791 0 1 1 0 0"/></g></g></svg>