<svg xmlns="http://www.w3.org/2000/svg" width="13" height="13" viewBox="0 0 13 13"><g><g><path fill="#cb2630" d="M12.766 10.487L8.778 6.5l3.988-3.987a.782.782 0 0 0 .249-.57.781.781 0 0 0-.25-.57L11.627.236a.783.783 0 0 0-.57-.25.785.785 0 0 0-.569.25L6.5 4.221 2.513.235a.784.784 0 0 0-.57-.25.785.785 0 0 0-.57.25L.235 1.374a.783.783 0 0 0-.249.57c0 .212.084.403.25.569L4.222 6.5.235 10.487a.782.782 0 0 0-.25.57c0 .213.084.403.25.569l1.14 1.139c.166.167.355.25.568.25a.78.78 0 0 0 .57-.25L6.5 8.779l3.987 3.987a.786.786 0 0 0 .57.25.784.784 0 0 0 .569-.25l1.139-1.14a.785.785 0 0 0 .25-.568.786.786 0 0 0-.25-.57z"/></g></g></svg>