<svg xmlns="http://www.w3.org/2000/svg" width="56" height="56" viewBox="0 0 56 56"><g><g><path fill="#cb2630" d="M56 27.999c0 15.44-12.561 28-28 28-15.44 0-28-12.56-28-28s12.56-28 28-28c15.439 0 28 12.56 28 28zm-4.59 0c0-12.909-10.502-23.41-23.41-23.41-12.909 0-23.41 10.501-23.41 23.41 0 12.908 10.501 23.41 23.41 23.41 12.908 0 23.41-10.502 23.41-23.41zm-8.052-10.747c.896.896.896 2.35 0 3.246L25.111 38.746a2.29 2.29 0 0 1-1.623.672 2.29 2.29 0 0 1-1.623-.672L12.64 29.52a2.295 2.295 0 0 1 3.246-3.245l7.6 7.601 16.625-16.625a2.296 2.296 0 0 1 3.246 0z"/></g></g></svg>