<svg xmlns="http://www.w3.org/2000/svg" width="16" height="16" viewBox="0 0 16 16"><g><g opacity="0.37"><path fill="#fff" d="M13.456 10.008c-.578-.57-1.3-.57-1.875 0-.438.435-.876.87-1.307 1.312-.118.122-.217.147-.36.066-.285-.155-.587-.28-.86-.45-1.27-.798-2.334-1.826-3.277-2.983-.468-.574-.884-1.19-1.175-1.881-.059-.14-.048-.232.066-.347.439-.423.866-.858 1.297-1.292.6-.605.6-1.311-.004-1.92-.343-.346-.685-.684-1.028-1.03C4.58 1.128 4.23.77 3.873.421c-.579-.564-1.3-.564-1.875.003-.442.435-.866.88-1.315 1.308-.416.394-.626.876-.67 1.44-.07.917.154 1.782.471 2.626.648 1.746 1.636 3.296 2.832 4.718a17.532 17.532 0 0 0 5.805 4.541c1.017.494 2.07.873 3.216.936.788.044 1.473-.155 2.022-.77.375-.42.799-.803 1.197-1.204.589-.597.593-1.32.007-1.908-.7-.704-1.403-1.403-2.107-2.104z"/></g></g></svg>
