<svg xmlns="http://www.w3.org/2000/svg" width="16" height="16" viewBox="0 0 16 16"><g><g><path fill="#cb2630" d="M13.456 10.009c-.578-.571-1.3-.571-1.874 0-.439.435-.877.87-1.308 1.311-.118.122-.217.147-.36.066-.284-.154-.586-.28-.86-.45-1.27-.798-2.334-1.826-3.277-2.982-.468-.575-.884-1.19-1.175-1.882-.059-.14-.048-.232.066-.346.439-.424.866-.859 1.297-1.293.6-.604.6-1.311-.004-1.92-.343-.345-.685-.684-1.028-1.03C4.58 1.129 4.23.772 3.873.422c-.579-.564-1.3-.564-1.875.004-.442.434-.866.88-1.315 1.307-.416.394-.626.877-.67 1.44-.07.917.154 1.783.471 2.626.648 1.746 1.636 3.296 2.833 4.718a17.532 17.532 0 0 0 5.804 4.541c1.017.494 2.07.873 3.216.936.788.044 1.473-.155 2.022-.77.375-.42.799-.803 1.197-1.204.589-.597.593-1.319.007-1.908-.7-.703-1.403-1.403-2.107-2.103z"/></g></g></svg>