<svg xmlns="http://www.w3.org/2000/svg" width="29" height="29" viewBox="0 0 29 29"><g><g><path fill="#cb2630" d="M29 5.638v17.723c0 1.544-.55 2.87-1.65 3.977C26.252 28.446 24.923 29 23.362 29H5.64c-1.56 0-2.891-.554-3.99-1.662-1.1-1.107-1.65-2.433-1.65-3.977V5.639c0-1.561.55-2.891 1.65-3.99 1.099-1.1 2.429-1.65 3.99-1.65H23.36c1.56 0 2.89.55 3.989 1.65C28.45 2.748 29 4.078 29 5.639zm-3.223.001c0-.671-.235-1.242-.704-1.712a2.328 2.328 0 0 0-1.712-.705H5.64a2.33 2.33 0 0 0-1.712.705 2.33 2.33 0 0 0-.705 1.712v17.723c0 .67.235 1.242.705 1.711.47.47 1.04.705 1.712.705H23.36c.67 0 1.242-.235 1.711-.705.47-.47.705-1.04.705-1.711zm-3.448 7.476c.15.151.226.345.226.58v1.61a.784.784 0 0 1-.226.58.786.786 0 0 1-.58.226h-5.638v5.639a.78.78 0 0 1-.227.578.781.781 0 0 1-.578.227h-1.611a.784.784 0 0 1-.58-.227.782.782 0 0 1-.226-.578v-5.64H7.25a.786.786 0 0 1-.579-.226.783.783 0 0 1-.226-.578v-1.611c0-.235.076-.429.226-.58a.785.785 0 0 1 .58-.226h5.638V7.25c0-.235.076-.428.227-.579a.783.783 0 0 1 .579-.226h1.61a.78.78 0 0 1 .58.226.782.782 0 0 1 .226.579v5.639h5.639c.235 0 .428.076.579.226z"/></g></g></svg>