<svg xmlns="http://www.w3.org/2000/svg" width="12" height="12" viewBox="0 0 12 12"><g><g><path fill="#cb2630" d="M1.432 1.436A4.87 4.87 0 0 1 4.9 0c1.309 0 2.54.51 3.466 1.436A4.87 4.87 0 0 1 9.8 4.902c0 .9-.241 1.762-.692 2.514l2.536 2.536a1.2 1.2 0 1 1-1.697 1.697L7.412 9.113a4.872 4.872 0 0 1-2.513.691 4.87 4.87 0 0 1-3.467-1.436 4.908 4.908 0 0 1 0-6.932zM3.13 6.67c.472.473 1.1.733 1.769.733.668 0 1.296-.26 1.769-.733.472-.473.733-1.1.733-1.77 0-.667-.26-1.296-.733-1.768a2.485 2.485 0 0 0-1.77-.733c-.668 0-1.296.26-1.768.733a2.505 2.505 0 0 0 0 3.538z"/></g></g></svg>