<svg xmlns="http://www.w3.org/2000/svg" width="19" height="19" viewBox="0 0 19 19"><g><g><path fill="#8d939e" d="M19 19h-1.484c0-4.42-3.596-8.016-8.016-8.016S1.484 14.58 1.484 19H0c0-2.537.988-4.922 2.782-6.717a9.467 9.467 0 0 1 3.61-2.264 5.49 5.49 0 0 1-2.384-4.526A5.498 5.498 0 0 1 9.5 0a5.498 5.498 0 0 1 5.492 5.492 5.49 5.49 0 0 1-2.385 4.526 9.467 9.467 0 0 1 3.61 2.264A9.438 9.438 0 0 1 19 19zM13.508 5.491A4.012 4.012 0 0 0 9.5 1.484a4.012 4.012 0 0 0-4.008 4.008A4.012 4.012 0 0 0 9.5 9.499a4.012 4.012 0 0 0 4.008-4.007z"/></g></g></svg>